{"title":"The Da Vinci Code 2006 ( in hindi Dubbed )","uid":5002250,"size":746684416,"categoryP":"video","categoryS":"movies","magnet":"?xt=urn:btih:1b3d2cd8eb668004a88a3ae7503d5c772e4712c9&amp;dn=The+Da+Vinci+Code+2006+%28+in+hindi+Dubbed+%29&amp;tr=udp%3A%2F%2Ftracker.openbittorrent.com%3A80&amp;tr=udp%3A%2F%2Fopen.demonii.com%3A1337&amp;tr=udp%3A%2F%2Ftracker.coppersurfer.tk%3A6969&amp;tr=udp%3A%2F%2Fexodus.desync.com%3A6969","seeders":1,"leechers":2,"uploader":"sudhirshinde007","files":1,"time":1247577376,"description":"General\nComplete name                    : The Da Vinci Code 2006 ( in hindi Dubbed )VTS_05_1.VOB\nFormat                           : MPEG-PS\nFile size                        : 712 MiB\nDuration                         : 2h 15mn\nOverall bit rate                 : 734 Kbps\n\nVideo\nID                               : 224 (0xE0)\nFormat                           : MPEG Video\nFormat version                   : Version 2\nFormat profile                   : Main@Main\nFormat settings, Matrix          : Default\nDuration                         : 2h 15mn\nBit rate mode                    : Variable\nBit rate                         : 481 Kbps\nNominal bit rate                 : 750 Kbps\nWidth                            : 352 pixels\nHeight                           : 288 pixels\nDisplay aspect ratio             : 4/3\nFrame rate                       : 25.000 fps\nStandard                         : PAL\nColorimetry                      : 4:2:0\nScan type                        : Progressive\nBits/(Pixel*Frame)               : 0.190\nStream size                      : 467 MiB (66%)\n\nAudio\nID                               : 192 (0xC0)\nFormat                           : MPEG Audio\nFormat version                   : Version 1\nFormat profile                   : Layer 2\nDuration                         : 2h 15mn\nBit rate mode                    : Constant\nBit rate                         : 224 Kbps\nChannel(s)                       : 2 channels\nSampling rate                    : 48.0 KHz\nResolution                       : 16 bits\nVideo delay                      : -168ms\nStream size                      : 217 MiB (31%)\n\nMenu\nFormat                           : DVD-Video\n\nPlays very well in VLC medial player\n\n","torrent":{"xt":"urn:btih:1b3d2cd8eb668004a88a3ae7503d5c772e4712c9","amp;dn":"The+Da+Vinci+Code+2006+%28+in+hindi+Dubbed+%29","amp;tr":["udp%3A%2F%2Ftracker.openbittorrent.com%3A80","udp%3A%2F%2Fopen.demonii.com%3A1337","udp%3A%2F%2Ftracker.coppersurfer.tk%3A6969","udp%3A%2F%2Fexodus.desync.com%3A6969"],"infoHash":"1b3d2cd8eb668004a88a3ae7503d5c772e4712c9","infoHashBuffer":{"type":"Buffer","data":[27,61,44,216,235,102,128,4,168,138,58,231,80,61,92,119,46,71,18,201]},"announce":[],"urlList":[]}}